<mxfile host="Electron" agent="Mozilla/5.0 (Windows NT 10.0; Win64; x64) AppleWebKit/537.36 (KHTML, like Gecko) draw.io/27.0.5 Chrome/134.0.6998.205 Electron/35.3.0 Safari/537.36" version="27.0.5">
  <diagram name="Seite-1" id="-Ld70PQspaJP8xabkP5B">
    <mxGraphModel dx="2316" dy="1391" grid="1" gridSize="10" guides="1" tooltips="1" connect="1" arrows="1" fold="1" page="1" pageScale="1" pageWidth="827" pageHeight="1169" math="0" shadow="0">
      <root>
        <mxCell id="0" />
        <mxCell id="1" parent="0" />
        <mxCell id="nyom9lg98YmEP_8j-TzF-24" style="edgeStyle=orthogonalEdgeStyle;rounded=0;orthogonalLoop=1;jettySize=auto;html=1;entryX=0.5;entryY=0;entryDx=0;entryDy=0;" parent="1" source="LWDNiXnL4qEjmtjjX1y_-1" target="LWDNiXnL4qEjmtjjX1y_-45" edge="1">
          <mxGeometry relative="1" as="geometry">
            <Array as="points">
              <mxPoint x="970" y="500" />
              <mxPoint x="970" y="260" />
              <mxPoint x="1210" y="260" />
            </Array>
          </mxGeometry>
        </mxCell>
        <mxCell id="okwzlGziz5vtXE_NrgkJ-7" style="edgeStyle=orthogonalEdgeStyle;rounded=0;orthogonalLoop=1;jettySize=auto;html=1;entryX=0;entryY=0.25;entryDx=0;entryDy=0;" edge="1" parent="1" source="LWDNiXnL4qEjmtjjX1y_-1" target="LWDNiXnL4qEjmtjjX1y_-53">
          <mxGeometry relative="1" as="geometry">
            <mxPoint x="950" y="830" as="targetPoint" />
            <Array as="points">
              <mxPoint x="950" y="481" />
              <mxPoint x="950" y="804" />
            </Array>
          </mxGeometry>
        </mxCell>
        <mxCell id="LWDNiXnL4qEjmtjjX1y_-1" value="Dim Abteilung" style="shape=parallelogram;perimeter=parallelogramPerimeter;whiteSpace=wrap;html=1;fixedSize=1;" parent="1" vertex="1">
          <mxGeometry x="630" y="451" width="120" height="60" as="geometry" />
        </mxCell>
        <mxCell id="LWDNiXnL4qEjmtjjX1y_-40" style="edgeStyle=orthogonalEdgeStyle;rounded=0;orthogonalLoop=1;jettySize=auto;html=1;entryX=0;entryY=0.5;entryDx=0;entryDy=0;" parent="1" source="LWDNiXnL4qEjmtjjX1y_-2" target="LWDNiXnL4qEjmtjjX1y_-45" edge="1">
          <mxGeometry relative="1" as="geometry">
            <mxPoint x="1030" y="660" as="targetPoint" />
            <Array as="points">
              <mxPoint x="870" y="200" />
              <mxPoint x="870" y="630" />
              <mxPoint x="1050" y="630" />
              <mxPoint x="1050" y="320" />
            </Array>
          </mxGeometry>
        </mxCell>
        <mxCell id="nyom9lg98YmEP_8j-TzF-15" style="edgeStyle=orthogonalEdgeStyle;rounded=0;orthogonalLoop=1;jettySize=auto;html=1;entryX=0.5;entryY=1;entryDx=0;entryDy=0;exitX=0.5;exitY=0;exitDx=0;exitDy=0;" parent="1" source="LWDNiXnL4qEjmtjjX1y_-43" target="LWDNiXnL4qEjmtjjX1y_-2" edge="1">
          <mxGeometry relative="1" as="geometry">
            <Array as="points">
              <mxPoint x="130" y="560" />
              <mxPoint x="800" y="560" />
              <mxPoint x="800" y="280" />
              <mxPoint x="690" y="280" />
            </Array>
          </mxGeometry>
        </mxCell>
        <mxCell id="nyom9lg98YmEP_8j-TzF-18" value="Fremdschlüssel von dim Mitarbeiter zu Employee Absence" style="edgeLabel;html=1;align=center;verticalAlign=middle;resizable=0;points=[];" parent="nyom9lg98YmEP_8j-TzF-15" vertex="1" connectable="0">
          <mxGeometry x="-0.4415" y="2" relative="1" as="geometry">
            <mxPoint as="offset" />
          </mxGeometry>
        </mxCell>
        <mxCell id="okwzlGziz5vtXE_NrgkJ-8" style="edgeStyle=orthogonalEdgeStyle;rounded=0;orthogonalLoop=1;jettySize=auto;html=1;entryX=0;entryY=0.75;entryDx=0;entryDy=0;" edge="1" parent="1" source="LWDNiXnL4qEjmtjjX1y_-2" target="LWDNiXnL4qEjmtjjX1y_-53">
          <mxGeometry relative="1" as="geometry">
            <Array as="points">
              <mxPoint x="870" y="200" />
              <mxPoint x="870" y="836" />
            </Array>
          </mxGeometry>
        </mxCell>
        <mxCell id="okwzlGziz5vtXE_NrgkJ-12" style="edgeStyle=orthogonalEdgeStyle;rounded=0;orthogonalLoop=1;jettySize=auto;html=1;entryX=0;entryY=0.25;entryDx=0;entryDy=0;" edge="1" parent="1" source="LWDNiXnL4qEjmtjjX1y_-2" target="LWDNiXnL4qEjmtjjX1y_-57">
          <mxGeometry relative="1" as="geometry">
            <mxPoint x="1110" y="1230" as="targetPoint" />
            <Array as="points">
              <mxPoint x="840" y="220" />
              <mxPoint x="840" y="1214" />
            </Array>
          </mxGeometry>
        </mxCell>
        <mxCell id="LWDNiXnL4qEjmtjjX1y_-2" value="Dim Mitarbeiter" style="shape=parallelogram;perimeter=parallelogramPerimeter;whiteSpace=wrap;html=1;fixedSize=1;" parent="1" vertex="1">
          <mxGeometry x="630" y="170" width="120" height="60" as="geometry" />
        </mxCell>
        <mxCell id="nyom9lg98YmEP_8j-TzF-23" style="edgeStyle=orthogonalEdgeStyle;rounded=0;orthogonalLoop=1;jettySize=auto;html=1;entryX=0.75;entryY=1;entryDx=0;entryDy=0;" parent="1" source="LWDNiXnL4qEjmtjjX1y_-3" target="LWDNiXnL4qEjmtjjX1y_-45" edge="1">
          <mxGeometry relative="1" as="geometry">
            <mxPoint x="1370" y="490" as="targetPoint" />
            <Array as="points">
              <mxPoint x="890" y="1026" />
              <mxPoint x="890" y="680" />
              <mxPoint x="1240" y="680" />
            </Array>
          </mxGeometry>
        </mxCell>
        <mxCell id="okwzlGziz5vtXE_NrgkJ-6" style="edgeStyle=orthogonalEdgeStyle;rounded=0;orthogonalLoop=1;jettySize=auto;html=1;entryX=0.25;entryY=1;entryDx=0;entryDy=0;" edge="1" parent="1" source="LWDNiXnL4qEjmtjjX1y_-3" target="LWDNiXnL4qEjmtjjX1y_-53">
          <mxGeometry relative="1" as="geometry" />
        </mxCell>
        <mxCell id="okwzlGziz5vtXE_NrgkJ-10" style="edgeStyle=orthogonalEdgeStyle;rounded=0;orthogonalLoop=1;jettySize=auto;html=1;entryX=0.5;entryY=0;entryDx=0;entryDy=0;" edge="1" parent="1" source="LWDNiXnL4qEjmtjjX1y_-3" target="LWDNiXnL4qEjmtjjX1y_-57">
          <mxGeometry relative="1" as="geometry">
            <Array as="points">
              <mxPoint x="1200" y="1050" />
              <mxPoint x="1200" y="1190" />
            </Array>
          </mxGeometry>
        </mxCell>
        <mxCell id="LWDNiXnL4qEjmtjjX1y_-3" value="Dim Zeitpunkt" style="shape=parallelogram;perimeter=parallelogramPerimeter;whiteSpace=wrap;html=1;fixedSize=1;" parent="1" vertex="1">
          <mxGeometry x="630" y="996" width="120" height="60" as="geometry" />
        </mxCell>
        <mxCell id="LWDNiXnL4qEjmtjjX1y_-55" style="edgeStyle=orthogonalEdgeStyle;rounded=0;orthogonalLoop=1;jettySize=auto;html=1;entryX=0.5;entryY=1;entryDx=0;entryDy=0;exitX=1;exitY=0.5;exitDx=0;exitDy=0;" parent="1" source="LWDNiXnL4qEjmtjjX1y_-4" target="LWDNiXnL4qEjmtjjX1y_-53" edge="1">
          <mxGeometry relative="1" as="geometry">
            <Array as="points">
              <mxPoint x="950" y="1276" />
              <mxPoint x="950" y="1060" />
              <mxPoint x="1210" y="1060" />
            </Array>
            <mxPoint x="740" y="1295" as="sourcePoint" />
            <mxPoint x="1600" y="790" as="targetPoint" />
          </mxGeometry>
        </mxCell>
        <mxCell id="LWDNiXnL4qEjmtjjX1y_-4" value="Dim Zeitraum" style="shape=parallelogram;perimeter=parallelogramPerimeter;whiteSpace=wrap;html=1;fixedSize=1;" parent="1" vertex="1">
          <mxGeometry x="630" y="1246" width="120" height="60" as="geometry" />
        </mxCell>
        <mxCell id="LWDNiXnL4qEjmtjjX1y_-32" style="edgeStyle=orthogonalEdgeStyle;rounded=0;orthogonalLoop=1;jettySize=auto;html=1;entryX=0;entryY=0.5;entryDx=0;entryDy=0;" parent="1" source="LWDNiXnL4qEjmtjjX1y_-6" target="LWDNiXnL4qEjmtjjX1y_-12" edge="1">
          <mxGeometry relative="1" as="geometry" />
        </mxCell>
        <mxCell id="nyom9lg98YmEP_8j-TzF-6" style="edgeStyle=orthogonalEdgeStyle;rounded=0;orthogonalLoop=1;jettySize=auto;html=1;entryX=0.5;entryY=0;entryDx=0;entryDy=0;" parent="1" source="LWDNiXnL4qEjmtjjX1y_-6" target="LWDNiXnL4qEjmtjjX1y_-1" edge="1">
          <mxGeometry relative="1" as="geometry">
            <Array as="points">
              <mxPoint x="130" y="360" />
              <mxPoint x="690" y="360" />
            </Array>
          </mxGeometry>
        </mxCell>
        <mxCell id="nyom9lg98YmEP_8j-TzF-7" value="Femdschlüssel von dim Abteilung zu Employee" style="edgeLabel;html=1;align=center;verticalAlign=middle;resizable=0;points=[];" parent="nyom9lg98YmEP_8j-TzF-6" vertex="1" connectable="0">
          <mxGeometry x="-0.01" y="1" relative="1" as="geometry">
            <mxPoint as="offset" />
          </mxGeometry>
        </mxCell>
        <mxCell id="LWDNiXnL4qEjmtjjX1y_-6" value="&lt;b&gt;Employee&lt;/b&gt;&lt;br&gt;Namespace: Microsoft.HumanResources.Employee" style="shape=parallelogram;perimeter=parallelogramPerimeter;whiteSpace=wrap;html=1;fixedSize=1;" parent="1" vertex="1">
          <mxGeometry x="10" y="170" width="240" height="60" as="geometry" />
        </mxCell>
        <mxCell id="LWDNiXnL4qEjmtjjX1y_-18" style="edgeStyle=orthogonalEdgeStyle;rounded=0;orthogonalLoop=1;jettySize=auto;html=1;entryX=0;entryY=0.5;entryDx=0;entryDy=0;" parent="1" source="LWDNiXnL4qEjmtjjX1y_-7" target="LWDNiXnL4qEjmtjjX1y_-13" edge="1">
          <mxGeometry relative="1" as="geometry" />
        </mxCell>
        <mxCell id="LWDNiXnL4qEjmtjjX1y_-7" value="&lt;div&gt;&lt;b&gt;Dimension Value&lt;/b&gt;&lt;/div&gt;Namespace:&lt;br&gt;&amp;nbsp;Microsoft.Finance.Dimension" style="shape=parallelogram;perimeter=parallelogramPerimeter;whiteSpace=wrap;html=1;fixedSize=1;" parent="1" vertex="1">
          <mxGeometry x="10" y="451" width="240" height="60" as="geometry" />
        </mxCell>
        <mxCell id="LWDNiXnL4qEjmtjjX1y_-20" style="edgeStyle=orthogonalEdgeStyle;rounded=0;orthogonalLoop=1;jettySize=auto;html=1;entryX=0;entryY=0.5;entryDx=0;entryDy=0;" parent="1" source="LWDNiXnL4qEjmtjjX1y_-9" target="LWDNiXnL4qEjmtjjX1y_-14" edge="1">
          <mxGeometry relative="1" as="geometry">
            <Array as="points">
              <mxPoint x="130" y="1026" />
            </Array>
          </mxGeometry>
        </mxCell>
        <mxCell id="LWDNiXnL4qEjmtjjX1y_-29" value="" style="edgeStyle=orthogonalEdgeStyle;rounded=0;orthogonalLoop=1;jettySize=auto;html=1;entryX=0;entryY=0.5;entryDx=0;entryDy=0;" parent="1" source="LWDNiXnL4qEjmtjjX1y_-9" target="LWDNiXnL4qEjmtjjX1y_-15" edge="1">
          <mxGeometry relative="1" as="geometry">
            <Array as="points">
              <mxPoint x="130" y="1126" />
              <mxPoint x="290" y="1126" />
              <mxPoint x="290" y="1276" />
            </Array>
          </mxGeometry>
        </mxCell>
        <mxCell id="LWDNiXnL4qEjmtjjX1y_-9" value="&lt;b&gt;Date&lt;/b&gt;&lt;br&gt;Namespace:&lt;br&gt;&amp;nbsp;System.Utilities" style="shape=parallelogram;perimeter=parallelogramPerimeter;whiteSpace=wrap;html=1;fixedSize=1;" parent="1" vertex="1">
          <mxGeometry x="10" y="936" width="240" height="60" as="geometry" />
        </mxCell>
        <mxCell id="LWDNiXnL4qEjmtjjX1y_-27" style="edgeStyle=orthogonalEdgeStyle;rounded=0;orthogonalLoop=1;jettySize=auto;html=1;entryX=0.5;entryY=1;entryDx=0;entryDy=0;" parent="1" source="LWDNiXnL4qEjmtjjX1y_-10" target="LWDNiXnL4qEjmtjjX1y_-14" edge="1">
          <mxGeometry relative="1" as="geometry">
            <Array as="points">
              <mxPoint x="430" y="1186" />
            </Array>
          </mxGeometry>
        </mxCell>
        <mxCell id="LWDNiXnL4qEjmtjjX1y_-10" value="&lt;b&gt;Base Calendar Change&lt;/b&gt;&lt;br&gt;Namespace:&lt;br&gt;Microsoft.Foundation.Calendar" style="shape=parallelogram;perimeter=parallelogramPerimeter;whiteSpace=wrap;html=1;fixedSize=1;" parent="1" vertex="1">
          <mxGeometry x="10" y="1156" width="240" height="60" as="geometry" />
        </mxCell>
        <mxCell id="LWDNiXnL4qEjmtjjX1y_-17" style="edgeStyle=orthogonalEdgeStyle;rounded=0;orthogonalLoop=1;jettySize=auto;html=1;entryX=0;entryY=0.5;entryDx=0;entryDy=0;" parent="1" source="LWDNiXnL4qEjmtjjX1y_-12" target="LWDNiXnL4qEjmtjjX1y_-2" edge="1">
          <mxGeometry relative="1" as="geometry" />
        </mxCell>
        <mxCell id="LWDNiXnL4qEjmtjjX1y_-12" value="Create Dim Mitarbeiter" style="shape=step;perimeter=stepPerimeter;whiteSpace=wrap;html=1;fixedSize=1;" parent="1" vertex="1">
          <mxGeometry x="370" y="160" width="120" height="80" as="geometry" />
        </mxCell>
        <mxCell id="LWDNiXnL4qEjmtjjX1y_-19" style="edgeStyle=orthogonalEdgeStyle;rounded=0;orthogonalLoop=1;jettySize=auto;html=1;entryX=0;entryY=0.5;entryDx=0;entryDy=0;" parent="1" source="LWDNiXnL4qEjmtjjX1y_-13" target="LWDNiXnL4qEjmtjjX1y_-1" edge="1">
          <mxGeometry relative="1" as="geometry" />
        </mxCell>
        <mxCell id="LWDNiXnL4qEjmtjjX1y_-13" value="Create Dim &lt;br&gt;Abteilung" style="shape=step;perimeter=stepPerimeter;whiteSpace=wrap;html=1;fixedSize=1;" parent="1" vertex="1">
          <mxGeometry x="370" y="441" width="120" height="80" as="geometry" />
        </mxCell>
        <mxCell id="LWDNiXnL4qEjmtjjX1y_-36" style="edgeStyle=orthogonalEdgeStyle;rounded=0;orthogonalLoop=1;jettySize=auto;html=1;entryX=0;entryY=0.5;entryDx=0;entryDy=0;" parent="1" source="LWDNiXnL4qEjmtjjX1y_-14" target="LWDNiXnL4qEjmtjjX1y_-3" edge="1">
          <mxGeometry relative="1" as="geometry" />
        </mxCell>
        <mxCell id="LWDNiXnL4qEjmtjjX1y_-14" value="Create DIm &lt;br&gt;Zeitpunkt" style="shape=step;perimeter=stepPerimeter;whiteSpace=wrap;html=1;fixedSize=1;" parent="1" vertex="1">
          <mxGeometry x="370" y="986" width="120" height="80" as="geometry" />
        </mxCell>
        <mxCell id="LWDNiXnL4qEjmtjjX1y_-28" style="edgeStyle=orthogonalEdgeStyle;rounded=0;orthogonalLoop=1;jettySize=auto;html=1;entryX=0;entryY=0.5;entryDx=0;entryDy=0;" parent="1" source="LWDNiXnL4qEjmtjjX1y_-15" target="LWDNiXnL4qEjmtjjX1y_-4" edge="1">
          <mxGeometry relative="1" as="geometry">
            <Array as="points">
              <mxPoint x="590" y="1276" />
              <mxPoint x="590" y="1276" />
            </Array>
          </mxGeometry>
        </mxCell>
        <mxCell id="LWDNiXnL4qEjmtjjX1y_-15" value="Create Dim &lt;br&gt;Zeitraum" style="shape=step;perimeter=stepPerimeter;whiteSpace=wrap;html=1;fixedSize=1;" parent="1" vertex="1">
          <mxGeometry x="370" y="1236" width="120" height="80" as="geometry" />
        </mxCell>
        <mxCell id="LWDNiXnL4qEjmtjjX1y_-37" value="TFT" style="shape=parallelogram;perimeter=parallelogramPerimeter;whiteSpace=wrap;html=1;fixedSize=1;" parent="1" vertex="1">
          <mxGeometry x="1360" y="290" width="120" height="60" as="geometry" />
        </mxCell>
        <mxCell id="LWDNiXnL4qEjmtjjX1y_-65" style="edgeStyle=orthogonalEdgeStyle;rounded=0;orthogonalLoop=1;jettySize=auto;html=1;entryX=0.5;entryY=0;entryDx=0;entryDy=0;" parent="1" source="LWDNiXnL4qEjmtjjX1y_-38" target="LWDNiXnL4qEjmtjjX1y_-63" edge="1">
          <mxGeometry relative="1" as="geometry">
            <Array as="points">
              <mxPoint x="1980" y="820" />
            </Array>
          </mxGeometry>
        </mxCell>
        <mxCell id="LWDNiXnL4qEjmtjjX1y_-38" value="PSFT" style="shape=parallelogram;perimeter=parallelogramPerimeter;whiteSpace=wrap;html=1;fixedSize=1;" parent="1" vertex="1">
          <mxGeometry x="1340" y="790" width="120" height="60" as="geometry" />
        </mxCell>
        <mxCell id="LWDNiXnL4qEjmtjjX1y_-46" style="edgeStyle=orthogonalEdgeStyle;rounded=0;orthogonalLoop=1;jettySize=auto;html=1;entryX=0.25;entryY=1;entryDx=0;entryDy=0;" parent="1" source="LWDNiXnL4qEjmtjjX1y_-43" target="LWDNiXnL4qEjmtjjX1y_-45" edge="1">
          <mxGeometry relative="1" as="geometry" />
        </mxCell>
        <mxCell id="nyom9lg98YmEP_8j-TzF-9" style="edgeStyle=orthogonalEdgeStyle;rounded=0;orthogonalLoop=1;jettySize=auto;html=1;entryX=0.75;entryY=0;entryDx=0;entryDy=0;" parent="1" source="LWDNiXnL4qEjmtjjX1y_-43" target="LWDNiXnL4qEjmtjjX1y_-3" edge="1">
          <mxGeometry relative="1" as="geometry">
            <Array as="points">
              <mxPoint x="160" y="720" />
              <mxPoint x="720" y="720" />
            </Array>
          </mxGeometry>
        </mxCell>
        <mxCell id="nyom9lg98YmEP_8j-TzF-10" value="Text" style="edgeLabel;html=1;align=center;verticalAlign=middle;resizable=0;points=[];" parent="nyom9lg98YmEP_8j-TzF-9" vertex="1" connectable="0">
          <mxGeometry x="-0.2959" relative="1" as="geometry">
            <mxPoint as="offset" />
          </mxGeometry>
        </mxCell>
        <mxCell id="nyom9lg98YmEP_8j-TzF-12" value="Fremdschlüssel von dim Zeitpunkt zu Employee Absence&amp;nbsp;" style="edgeLabel;html=1;align=center;verticalAlign=middle;resizable=0;points=[];" parent="nyom9lg98YmEP_8j-TzF-9" vertex="1" connectable="0">
          <mxGeometry x="-0.2962" y="-2" relative="1" as="geometry">
            <mxPoint x="1" as="offset" />
          </mxGeometry>
        </mxCell>
        <mxCell id="nyom9lg98YmEP_8j-TzF-13" value="" style="edgeStyle=orthogonalEdgeStyle;rounded=0;orthogonalLoop=1;jettySize=auto;html=1;" parent="1" source="LWDNiXnL4qEjmtjjX1y_-43" target="LWDNiXnL4qEjmtjjX1y_-44" edge="1">
          <mxGeometry relative="1" as="geometry" />
        </mxCell>
        <mxCell id="nyom9lg98YmEP_8j-TzF-14" value="" style="edgeStyle=orthogonalEdgeStyle;rounded=0;orthogonalLoop=1;jettySize=auto;html=1;" parent="1" source="LWDNiXnL4qEjmtjjX1y_-43" target="LWDNiXnL4qEjmtjjX1y_-44" edge="1">
          <mxGeometry relative="1" as="geometry" />
        </mxCell>
        <mxCell id="okwzlGziz5vtXE_NrgkJ-5" style="edgeStyle=orthogonalEdgeStyle;rounded=0;orthogonalLoop=1;jettySize=auto;html=1;entryX=0;entryY=0.5;entryDx=0;entryDy=0;" edge="1" parent="1" source="LWDNiXnL4qEjmtjjX1y_-43" target="okwzlGziz5vtXE_NrgkJ-2">
          <mxGeometry relative="1" as="geometry">
            <Array as="points">
              <mxPoint x="290" y="650" />
              <mxPoint x="290" y="1460" />
            </Array>
          </mxGeometry>
        </mxCell>
        <mxCell id="okwzlGziz5vtXE_NrgkJ-14" style="edgeStyle=orthogonalEdgeStyle;rounded=0;orthogonalLoop=1;jettySize=auto;html=1;entryX=0;entryY=0.5;entryDx=0;entryDy=0;" edge="1" parent="1" source="LWDNiXnL4qEjmtjjX1y_-43" target="LWDNiXnL4qEjmtjjX1y_-57">
          <mxGeometry relative="1" as="geometry">
            <Array as="points">
              <mxPoint x="350" y="670" />
              <mxPoint x="350" y="1210" />
              <mxPoint x="1050" y="1210" />
              <mxPoint x="1050" y="1230" />
            </Array>
          </mxGeometry>
        </mxCell>
        <mxCell id="LWDNiXnL4qEjmtjjX1y_-43" value="&lt;b&gt;Employee Absence&lt;br&gt;&lt;/b&gt;Namespace: Microsoft.HumanResources.Absence" style="shape=parallelogram;perimeter=parallelogramPerimeter;whiteSpace=wrap;html=1;fixedSize=1;" parent="1" vertex="1">
          <mxGeometry x="10" y="620" width="240" height="60" as="geometry" />
        </mxCell>
        <mxCell id="LWDNiXnL4qEjmtjjX1y_-47" style="edgeStyle=orthogonalEdgeStyle;rounded=0;orthogonalLoop=1;jettySize=auto;html=1;entryX=0.5;entryY=1;entryDx=0;entryDy=0;" parent="1" source="LWDNiXnL4qEjmtjjX1y_-44" target="LWDNiXnL4qEjmtjjX1y_-45" edge="1">
          <mxGeometry relative="1" as="geometry">
            <Array as="points">
              <mxPoint x="270" y="781" />
              <mxPoint x="270" y="700" />
              <mxPoint x="1210" y="700" />
            </Array>
          </mxGeometry>
        </mxCell>
        <mxCell id="okwzlGziz5vtXE_NrgkJ-13" style="edgeStyle=orthogonalEdgeStyle;rounded=0;orthogonalLoop=1;jettySize=auto;html=1;entryX=0;entryY=0.75;entryDx=0;entryDy=0;" edge="1" parent="1" source="LWDNiXnL4qEjmtjjX1y_-44" target="LWDNiXnL4qEjmtjjX1y_-57">
          <mxGeometry relative="1" as="geometry">
            <Array as="points">
              <mxPoint x="330" y="781" />
              <mxPoint x="330" y="1230" />
              <mxPoint x="1030" y="1230" />
              <mxPoint x="1030" y="1246" />
            </Array>
          </mxGeometry>
        </mxCell>
        <mxCell id="LWDNiXnL4qEjmtjjX1y_-44" value="&lt;b&gt;Cause of Absence&lt;/b&gt;&lt;div&gt;Namespace: Microsoft.HumanResources.Absence&lt;/div&gt;" style="shape=parallelogram;perimeter=parallelogramPerimeter;whiteSpace=wrap;html=1;fixedSize=1;" parent="1" vertex="1">
          <mxGeometry x="10" y="751" width="240" height="60" as="geometry" />
        </mxCell>
        <mxCell id="LWDNiXnL4qEjmtjjX1y_-51" style="edgeStyle=orthogonalEdgeStyle;rounded=0;orthogonalLoop=1;jettySize=auto;html=1;entryX=0;entryY=0.5;entryDx=0;entryDy=0;exitX=1;exitY=0.5;exitDx=0;exitDy=0;" parent="1" source="LWDNiXnL4qEjmtjjX1y_-45" target="LWDNiXnL4qEjmtjjX1y_-37" edge="1">
          <mxGeometry relative="1" as="geometry">
            <Array as="points">
              <mxPoint x="1290" y="320" />
              <mxPoint x="1290" y="320" />
            </Array>
          </mxGeometry>
        </mxCell>
        <mxCell id="LWDNiXnL4qEjmtjjX1y_-45" value="Create TFT" style="shape=step;perimeter=stepPerimeter;whiteSpace=wrap;html=1;fixedSize=1;" parent="1" vertex="1">
          <mxGeometry x="1150" y="280" width="120" height="80" as="geometry" />
        </mxCell>
        <mxCell id="LWDNiXnL4qEjmtjjX1y_-56" style="edgeStyle=orthogonalEdgeStyle;rounded=0;orthogonalLoop=1;jettySize=auto;html=1;entryX=0;entryY=0.5;entryDx=0;entryDy=0;" parent="1" source="LWDNiXnL4qEjmtjjX1y_-53" target="LWDNiXnL4qEjmtjjX1y_-38" edge="1">
          <mxGeometry relative="1" as="geometry" />
        </mxCell>
        <mxCell id="LWDNiXnL4qEjmtjjX1y_-53" value="Create PSFT" style="shape=step;perimeter=stepPerimeter;whiteSpace=wrap;html=1;fixedSize=1;" parent="1" vertex="1">
          <mxGeometry x="1150" y="780" width="120" height="80" as="geometry" />
        </mxCell>
        <mxCell id="okwzlGziz5vtXE_NrgkJ-9" style="edgeStyle=orthogonalEdgeStyle;rounded=0;orthogonalLoop=1;jettySize=auto;html=1;entryX=0;entryY=0.5;entryDx=0;entryDy=0;" edge="1" parent="1" source="LWDNiXnL4qEjmtjjX1y_-57" target="LWDNiXnL4qEjmtjjX1y_-61">
          <mxGeometry relative="1" as="geometry" />
        </mxCell>
        <mxCell id="LWDNiXnL4qEjmtjjX1y_-57" value="Create ASFT" style="shape=step;perimeter=stepPerimeter;whiteSpace=wrap;html=1;fixedSize=1;" parent="1" vertex="1">
          <mxGeometry x="1150" y="1190" width="120" height="80" as="geometry" />
        </mxCell>
        <mxCell id="LWDNiXnL4qEjmtjjX1y_-64" style="edgeStyle=orthogonalEdgeStyle;rounded=0;orthogonalLoop=1;jettySize=auto;html=1;entryX=0.5;entryY=1;entryDx=0;entryDy=0;" parent="1" source="LWDNiXnL4qEjmtjjX1y_-61" target="LWDNiXnL4qEjmtjjX1y_-63" edge="1">
          <mxGeometry relative="1" as="geometry" />
        </mxCell>
        <mxCell id="LWDNiXnL4qEjmtjjX1y_-61" value="ASFT" style="shape=parallelogram;perimeter=parallelogramPerimeter;whiteSpace=wrap;html=1;fixedSize=1;" parent="1" vertex="1">
          <mxGeometry x="1350" y="1200" width="120" height="60" as="geometry" />
        </mxCell>
        <mxCell id="LWDNiXnL4qEjmtjjX1y_-67" style="edgeStyle=orthogonalEdgeStyle;rounded=0;orthogonalLoop=1;jettySize=auto;html=1;entryX=0;entryY=0.5;entryDx=0;entryDy=0;" parent="1" source="LWDNiXnL4qEjmtjjX1y_-63" target="LWDNiXnL4qEjmtjjX1y_-66" edge="1">
          <mxGeometry relative="1" as="geometry" />
        </mxCell>
        <mxCell id="LWDNiXnL4qEjmtjjX1y_-63" value="Create Report" style="shape=step;perimeter=stepPerimeter;whiteSpace=wrap;html=1;fixedSize=1;" parent="1" vertex="1">
          <mxGeometry x="1920" y="836" width="120" height="80" as="geometry" />
        </mxCell>
        <mxCell id="LWDNiXnL4qEjmtjjX1y_-69" style="edgeStyle=orthogonalEdgeStyle;rounded=0;orthogonalLoop=1;jettySize=auto;html=1;entryX=0;entryY=0.5;entryDx=0;entryDy=0;" parent="1" source="LWDNiXnL4qEjmtjjX1y_-66" target="LWDNiXnL4qEjmtjjX1y_-68" edge="1">
          <mxGeometry relative="1" as="geometry" />
        </mxCell>
        <mxCell id="LWDNiXnL4qEjmtjjX1y_-66" value="Reporttabelle" style="shape=parallelogram;perimeter=parallelogramPerimeter;whiteSpace=wrap;html=1;fixedSize=1;" parent="1" vertex="1">
          <mxGeometry x="2120" y="846" width="120" height="60" as="geometry" />
        </mxCell>
        <mxCell id="LWDNiXnL4qEjmtjjX1y_-68" value="Report" style="shape=document;whiteSpace=wrap;html=1;boundedLbl=1;" parent="1" vertex="1">
          <mxGeometry x="2320" y="836" width="120" height="80" as="geometry" />
        </mxCell>
        <mxCell id="LWDNiXnL4qEjmtjjX1y_-72" value="&lt;font style=&quot;font-size: 36px;&quot;&gt;Legende&lt;/font&gt;" style="swimlane;whiteSpace=wrap;html=1;" parent="1" vertex="1">
          <mxGeometry x="1580" y="1410" width="890" height="920" as="geometry" />
        </mxCell>
        <mxCell id="LWDNiXnL4qEjmtjjX1y_-73" value="&lt;font style=&quot;font-size: 36px;&quot;&gt;...&lt;/font&gt;" style="shape=parallelogram;perimeter=parallelogramPerimeter;whiteSpace=wrap;html=1;fixedSize=1;" parent="LWDNiXnL4qEjmtjjX1y_-72" vertex="1">
          <mxGeometry x="505" y="150" width="320" height="140" as="geometry" />
        </mxCell>
        <mxCell id="LWDNiXnL4qEjmtjjX1y_-74" value="&lt;font style=&quot;font-size: 36px;&quot;&gt;...&lt;/font&gt;" style="shape=step;perimeter=stepPerimeter;whiteSpace=wrap;html=1;fixedSize=1;" parent="LWDNiXnL4qEjmtjjX1y_-72" vertex="1">
          <mxGeometry x="505" y="410" width="325" height="140" as="geometry" />
        </mxCell>
        <mxCell id="LWDNiXnL4qEjmtjjX1y_-75" value="&lt;font style=&quot;font-size: 36px;&quot;&gt;...&lt;/font&gt;" style="shape=document;whiteSpace=wrap;html=1;boundedLbl=1;" parent="LWDNiXnL4qEjmtjjX1y_-72" vertex="1">
          <mxGeometry x="500" y="684" width="325" height="190" as="geometry" />
        </mxCell>
        <mxCell id="LWDNiXnL4qEjmtjjX1y_-76" value="&lt;font style=&quot;font-size: 36px;&quot;&gt;Tabelle:&lt;/font&gt;" style="text;html=1;align=center;verticalAlign=middle;whiteSpace=wrap;rounded=0;" parent="LWDNiXnL4qEjmtjjX1y_-72" vertex="1">
          <mxGeometry x="125" y="200" width="100" height="30" as="geometry" />
        </mxCell>
        <mxCell id="LWDNiXnL4qEjmtjjX1y_-77" value="&lt;font style=&quot;font-size: 36px;&quot;&gt;Programm Einheit:&lt;/font&gt;" style="text;html=1;align=center;verticalAlign=middle;whiteSpace=wrap;rounded=0;" parent="LWDNiXnL4qEjmtjjX1y_-72" vertex="1">
          <mxGeometry x="95" y="465" width="335" height="30" as="geometry" />
        </mxCell>
        <mxCell id="LWDNiXnL4qEjmtjjX1y_-78" value="&lt;font style=&quot;font-size: 36px;&quot;&gt;Berricht:&lt;/font&gt;" style="text;html=1;align=center;verticalAlign=middle;whiteSpace=wrap;rounded=0;" parent="LWDNiXnL4qEjmtjjX1y_-72" vertex="1">
          <mxGeometry x="114" y="750" width="134" height="30" as="geometry" />
        </mxCell>
        <mxCell id="okwzlGziz5vtXE_NrgkJ-4" style="edgeStyle=orthogonalEdgeStyle;rounded=0;orthogonalLoop=1;jettySize=auto;html=1;entryX=0.75;entryY=1;entryDx=0;entryDy=0;" edge="1" parent="1" source="okwzlGziz5vtXE_NrgkJ-1" target="LWDNiXnL4qEjmtjjX1y_-53">
          <mxGeometry relative="1" as="geometry">
            <Array as="points">
              <mxPoint x="990" y="1460" />
              <mxPoint x="990" y="1090" />
              <mxPoint x="1240" y="1090" />
            </Array>
          </mxGeometry>
        </mxCell>
        <mxCell id="okwzlGziz5vtXE_NrgkJ-17" style="edgeStyle=orthogonalEdgeStyle;rounded=0;orthogonalLoop=1;jettySize=auto;html=1;entryX=0.75;entryY=1;entryDx=0;entryDy=0;" edge="1" parent="1" source="okwzlGziz5vtXE_NrgkJ-1" target="LWDNiXnL4qEjmtjjX1y_-63">
          <mxGeometry relative="1" as="geometry">
            <Array as="points">
              <mxPoint x="1100" y="1460" />
              <mxPoint x="1100" y="1360" />
              <mxPoint x="2010" y="1360" />
            </Array>
          </mxGeometry>
        </mxCell>
        <mxCell id="okwzlGziz5vtXE_NrgkJ-1" value="Hilfstabelle" style="shape=parallelogram;perimeter=parallelogramPerimeter;whiteSpace=wrap;html=1;fixedSize=1;" vertex="1" parent="1">
          <mxGeometry x="630" y="1430" width="120" height="60" as="geometry" />
        </mxCell>
        <mxCell id="okwzlGziz5vtXE_NrgkJ-3" style="edgeStyle=orthogonalEdgeStyle;rounded=0;orthogonalLoop=1;jettySize=auto;html=1;entryX=0;entryY=0.5;entryDx=0;entryDy=0;" edge="1" parent="1" source="okwzlGziz5vtXE_NrgkJ-2" target="okwzlGziz5vtXE_NrgkJ-1">
          <mxGeometry relative="1" as="geometry" />
        </mxCell>
        <mxCell id="okwzlGziz5vtXE_NrgkJ-2" value="Create Dim &lt;br&gt;Hilfstabelle" style="shape=step;perimeter=stepPerimeter;whiteSpace=wrap;html=1;fixedSize=1;" vertex="1" parent="1">
          <mxGeometry x="370" y="1420" width="120" height="80" as="geometry" />
        </mxCell>
        <mxCell id="okwzlGziz5vtXE_NrgkJ-16" style="edgeStyle=orthogonalEdgeStyle;rounded=0;orthogonalLoop=1;jettySize=auto;html=1;entryX=0.25;entryY=1;entryDx=0;entryDy=0;" edge="1" parent="1" source="okwzlGziz5vtXE_NrgkJ-15" target="LWDNiXnL4qEjmtjjX1y_-63">
          <mxGeometry relative="1" as="geometry" />
        </mxCell>
        <mxCell id="okwzlGziz5vtXE_NrgkJ-15" value="Alle DIm Tabellen" style="shape=parallelogram;perimeter=parallelogramPerimeter;whiteSpace=wrap;html=1;fixedSize=1;" vertex="1" parent="1">
          <mxGeometry x="1550" y="970" width="120" height="60" as="geometry" />
        </mxCell>
      </root>
    </mxGraphModel>
  </diagram>
</mxfile>
